<svg style="display: none" xmlns="http://www.w3.org/2000/svg">
    <symbol id="logo">
      <path d="M37.338 6.791c-1.236 0-2.374.473-3.019 1.106-1.02.989-1.385 2.149-1.385 4.738H31.44v.44h1.494v8.884c0 1.225-.376 1.58-1.408 1.58V24c.559-.021 1.74-.086 2.858-.086 1.525 0 3.03.064 3.792.086v-.462c-1.3 0-2.074-.376-2.074-1.805v-8.658h2.353v-.44h-2.352v-1.998c0-1.698.107-2.428.408-2.868.236-.355.623-.58 1.192-.58.43 0 .698.14.795.311-.849.247-1.289.88-1.289 1.633 0 .977.688 1.568 1.676 1.568.924 0 1.557-.72 1.557-1.536 0-.73-.333-1.3-.752-1.644-.59-.44-1.332-.73-2.352-.73Zm4.361 14.115c-1.15 0-1.869.645-1.869 1.708 0 1.053.72 1.697 1.87 1.697 1.149 0 1.88-.644 1.88-1.697 0-1.063-.731-1.708-1.88-1.708Zm11.408-8.593c-1.557 0-2.803.74-3.416 2.137v-2.062c-.913.225-1.987.311-3.212.311-.44 0-.902-.021-1.364-.064v.462c1.064 0 1.407.612 1.407 1.933v10.99c0 1.17-.354 1.503-1.32 1.503v.462c.547-.021 1.696-.096 2.77-.096 1.494 0 2.955.075 3.696.096v-.462c-1.235 0-1.977-.354-1.977-1.718v-2.203c.548.462 1.354.71 2.256.71 3.083 0 5.092-2.235 5.092-6.51 0-3.663-1.697-5.49-3.932-5.49Zm-2.02 11.397c-.59 0-1.073-.215-1.396-.59v-7.918c.269-1.246 1.16-1.944 2.127-1.944 1.15 0 1.902 1.235 1.902 4.973 0 3.384-.677 5.479-2.632 5.479Zm12.57-11.398c-1.483 0-2.557.312-3.342.753-.72.418-1.235 1.03-1.235 1.836 0 .967.602 1.698 1.558 1.698 1.085 0 1.794-.666 1.794-1.58 0-.891-.516-1.46-1.3-1.729.397-.387 1.042-.537 1.568-.537 1.3 0 1.794.816 1.794 1.966v1.719c0 .945-1.267 1.364-2.89 1.976-2.04.752-3.093 1.644-3.093 3.233 0 1.601 1.138 2.503 2.782 2.503 1.235 0 2.492-.547 3.244-1.783.01.945.505 1.783 2.116 1.783 1.117 0 1.848-.268 2.514-.805l-.226-.376c-.247.193-.494.376-.805.376-.355 0-.473-.269-.473-.978v-5.983c0-1.536-.14-2.417-.784-3.083-.71-.73-1.805-.989-3.223-.989Zm.837 9.54c-.462.655-.945.891-1.482.891-.785 0-1.375-.494-1.375-1.708 0-1.321.72-2.04 1.493-2.61.741-.462 1.16-.752 1.364-1.085v4.512ZM74.27 6.78c-.913.215-1.987.301-3.211.301-.44 0-.903-.021-1.365-.064v.462c1.064 0 1.408.623 1.408 1.944v12.536c0 1.225-.376 1.58-1.408 1.58V24c.591-.021 1.902-.086 3.051-.086 1.139 0 2.374.064 2.933.086v-.462c-1.02 0-1.408-.354-1.408-1.579V6.78Zm7.627 5.532c-1.482 0-2.556.312-3.34.753-.72.418-1.236 1.03-1.236 1.836 0 .967.602 1.698 1.558 1.698 1.085 0 1.794-.666 1.794-1.58 0-.891-.516-1.46-1.3-1.729.397-.387 1.042-.537 1.568-.537 1.3 0 1.794.816 1.794 1.966v1.719c0 .945-1.267 1.364-2.89 1.976-2.04.752-3.093 1.644-3.093 3.233 0 1.601 1.139 2.503 2.782 2.503 1.236 0 2.492-.547 3.244-1.783.011.945.505 1.783 2.117 1.783 1.117 0 1.847-.268 2.513-.805l-.225-.376c-.247.193-.495.376-.806.376-.355 0-.473-.269-.473-.978v-5.983c0-1.536-.14-2.417-.784-3.083-.709-.73-1.805-.989-3.222-.989Zm.838 9.54c-.462.655-.945.891-1.482.891-.784 0-1.375-.494-1.375-1.708 0-1.321.72-2.04 1.493-2.61.741-.462 1.16-.752 1.364-1.085v4.512Zm11.011-9.54c-3.115 0-5.435 2.085-5.435 6.06 0 4.124 2.255 5.94 5.124 5.94 2.513 0 3.867-1.827 4.372-3.47l-.387-.14c-.892 1.472-2.063 1.794-2.879 1.794-1.45 0-2.911-1.02-2.911-4.436 0-2.987.956-5.21 2.782-5.21.58 0 1.096.225 1.321.526-.784.215-1.45.88-1.45 1.805 0 .988.656 1.633 1.698 1.633 1.01 0 1.74-.731 1.74-1.773 0-.87-.473-1.6-1.214-2.052-.634-.397-1.622-.677-2.76-.677Zm11.677 10.184c-1.397 0-2.868-1.192-2.868-4.254 0-.354.01-.72.043-1.042h6.155c0-3.448-1.568-4.887-4.136-4.887-3.126 0-5.382 2.03-5.382 6.112 0 4.017 2.106 5.886 5.071 5.886 2.438 0 3.878-1.772 4.404-3.426l-.397-.15c-.892 1.46-2.009 1.761-2.89 1.761Zm-.935-9.71c1.075 0 1.536 1.847 1.493 3.995h-3.448c.183-2.846.967-3.996 1.955-3.996Z" fill="#2E2E2E"/><path d="m17.702 12.426-.267-.88a1.912 1.912 0 0 0-3.622 0l-.268.88a4.945 4.945 0 0 0-.137 2.291 2.156 2.156 0 0 0 1.11 1.502l-.3 6.698c-.04.373.081.747.333 1.025a1.455 1.455 0 0 0 2.149 0c.246-.27.367-.633.333-.997l-.301-6.726a2.155 2.155 0 0 0 1.108-1.502 4.946 4.946 0 0 0-.138-2.291Zm-.683 2.146c-.09.463-.42.842-.864.996a.416.416 0 0 0-.27.409l.317 7.033a.482.482 0 0 1-.125.378.644.644 0 0 1-.906 0 .5.5 0 0 1-.123-.405l.315-7.006a.417.417 0 0 0-.27-.41 1.321 1.321 0 0 1-.865-.995 4.108 4.108 0 0 1 .115-1.902l.268-.88a1.08 1.08 0 0 1 2.026 0l.268.88a4.11 4.11 0 0 1 .114 1.902ZM11.25 10.25a.417.417 0 0 0-.418.417v3.577l-1.127 1.128a.417.417 0 0 0-.122.316l.364 7.291a.568.568 0 0 1-.157.425.587.587 0 0 1-.83.003l-.004-.003a.568.568 0 0 1-.157-.425l.367-7.291a.417.417 0 0 0-.122-.316l-1.128-1.128v-3.577a.417.417 0 0 0-.833 0v3.75c0 .11.043.216.122.294l1.119 1.12-.356 7.108a1.407 1.407 0 1 0 2.812 0l-.355-7.108 1.119-1.12a.417.417 0 0 0 .122-.294v-3.75a.417.417 0 0 0-.417-.417Z" fill="#FF9401"/><path d="M8.75 10.25a.417.417 0 0 0-.417.417V14a.417.417 0 0 0 .833 0v-3.333a.417.417 0 0 0-.417-.417Zm1.25 0a.417.417 0 0 0-.417.417V14a.417.417 0 0 0 .833 0v-3.333a.417.417 0 0 0-.417-.417Z" fill="#FF9401"/><path d="M12.5 4C5.596 4 0 9.596 0 16.5S5.596 29 12.5 29 25 23.404 25 16.5C24.992 9.6 19.4 4.008 12.5 4Zm0 24.167C6.057 28.167.833 22.943.833 16.5S6.057 4.833 12.5 4.833 24.167 10.057 24.167 16.5c-.008 6.44-5.227 11.66-11.667 11.667Z" fill="#2E2E2E"/><path d="M13.852 24.322a.417.417 0 0 0-.47-.373 7.657 7.657 0 0 1-1.765 0 .417.417 0 1 0-.097.828c.65.076 1.308.076 1.958 0a.417.417 0 0 0 .374-.456Zm5.023-13.192a.417.417 0 0 0-.587-.05h-.002a.417.417 0 0 0-.05.588 7.5 7.5 0 0 1-.442 10.145.417.417 0 1 0 .588.59 8.333 8.333 0 0 0 .493-11.272ZM14.467 8.4a8.407 8.407 0 0 0-4.905.301.417.417 0 0 0 .292.78 7.57 7.57 0 0 1 4.417-.271.417.417 0 1 0 .196-.81ZM7.186 21.791A7.452 7.452 0 0 1 5 16.5a7.445 7.445 0 0 1 1.434-4.412.417.417 0 1 0-.673-.49 8.333 8.333 0 0 0 .836 10.783.417.417 0 0 0 .59-.59Z" fill="#2E2E2E"/> </symbol>

<symbol id="menu__search">
  <path d="M10 18a7.952 7.952 0 0 0 4.897-1.688l4.396 4.396.707-.707.707-.707-4.396-4.396A7.952 7.952 0 0 0 18 10c0-4.411-3.589-8-8-8s-8 3.589-8 8 3.589 8 8 8Zm0-14c3.309 0 6 2.691 6 6s-2.691 6-6 6-6-2.691-6-6 2.691-6 6-6Z" fill="#2E2E2E"/>
</symbol>


<symbol id="menu__cart">
  <path d="M16.133 5.867V2.933c0-1.466-1.466-1.466-1.466-1.466h-7.26s-1.62.003-1.54 1.466v2.934H2.933s-1.466 0-1.466 1.466V17.6c0 1.467 1.466 1.467 1.466 1.467h16.134s1.466 0 1.466-1.467V7.333c0-1.466-1.466-1.466-1.466-1.466h-2.934Zm-8.066-2.2h5.866v2.2H8.067v-2.2Z" fill="#2E2E2E"/><circle cx="18.5" cy="5.5" r="3.5" fill="#FF9702"/>
</symbol>

<symbol id="menu__burg">
  <rect width="20" height="3" rx="1.5" fill="#2E2E2E"/><rect x="4" y="7" width="16" height="3" rx="1.5" fill="#2E2E2E"/><rect y="14" width="20" height="3" rx="1.5" fill="#2E2E2E"/>
</symbol>

<symbol id="facebook">
  <circle cx="17.5" cy="17.5" r="17.5" fill="#fff"/><path d="M19 15.977h3v2.988h-3v6.973h-3v-6.973h-3v-2.988h3v-1.25c0-1.185.374-2.681 1.118-3.499.744-.82 1.673-1.228 2.786-1.228H22v2.988h-2.1c-.498 0-.9.4-.9.896v2.093Z" fill="#2E2E2E"/>
</symbol>

<symbol id="instagram">
  <circle cx="17.5" cy="17.5" r="17.5" fill="#fff"/><path d="M16.998 13.88a4.091 4.091 0 0 0-4.105 4.089 4.091 4.091 0 0 0 4.105 4.089 4.091 4.091 0 0 0 4.104-4.09 4.091 4.091 0 0 0-4.104-4.088Zm0 6.746a2.668 2.668 0 0 1-2.668-2.657 2.668 2.668 0 0 1 5.336 0 2.668 2.668 0 0 1-2.668 2.657Zm4.273-7.866a.956.956 0 1 0 0 1.91.954.954 0 1 0 0-1.91Zm3.728 5.209c0-1.1.01-2.191-.052-3.29-.062-1.275-.354-2.408-1.29-3.34-.94-.936-2.074-1.225-3.355-1.287-1.105-.061-2.2-.051-3.302-.051-1.105 0-2.2-.01-3.302.051-1.281.062-2.418.353-3.354 1.286-.94.935-1.23 2.066-1.291 3.342C8.99 15.78 9 16.87 9 17.969c0 1.098-.01 2.19.052 3.29.062 1.275.354 2.407 1.29 3.34.94.936 2.074 1.225 3.355 1.286 1.104.062 2.2.052 3.302.052 1.105 0 2.2.01 3.302-.052 1.28-.061 2.418-.353 3.354-1.286.939-.934 1.229-2.065 1.291-3.34.064-1.1.052-2.19.052-3.29Zm-1.761 4.7a2.533 2.533 0 0 1-.604.914 2.563 2.563 0 0 1-.917.602c-1.053.417-3.552.323-4.72.323-1.166 0-3.668.094-4.72-.321a2.545 2.545 0 0 1-.917-.602 2.55 2.55 0 0 1-.604-.913c-.417-1.05-.322-3.54-.322-4.703 0-1.162-.095-3.654.322-4.703.146-.363.322-.634.604-.913a2.59 2.59 0 0 1 .917-.602c1.052-.415 3.554-.321 4.72-.321 1.168 0 3.67-.094 4.722.32.364.146.636.322.917.603.282.281.458.55.604.913.416 1.049.322 3.54.322 4.703 0 1.162.094 3.652-.324 4.7Z" fill="#2E2E2E"/>
</symbol>

<symbol id="twitter">
  <circle cx="17.5" cy="17.5" r="17.5" fill="#fff"/><path d="M25.633 13.963c.013.174.013.347.013.52 0 5.305-4.053 11.417-11.46 11.417-2.282 0-4.402-.659-6.186-1.802.324.037.636.05.973.05a8.09 8.09 0 0 0 5.001-1.715 4.047 4.047 0 0 1-2.33-.79 4.021 4.021 0 0 1-1.437-1.992c.249.037.499.062.761.062a4.3 4.3 0 0 0 1.061-.136 4.03 4.03 0 0 1-2.321-1.394 4.001 4.001 0 0 1-.909-2.544v-.05c.537.298 1.16.484 1.82.51a4.012 4.012 0 0 1-1.796-3.342c0-.745.199-1.428.548-2.024a11.449 11.449 0 0 0 3.705 2.978c1.431.723 2.999 1.14 4.601 1.22a4.542 4.542 0 0 1-.1-.919 3.994 3.994 0 0 1 1.18-2.837A4.027 4.027 0 0 1 21.604 10c1.16 0 2.207.484 2.943 1.267a7.978 7.978 0 0 0 2.556-.97c-.3.928-.93 1.714-1.771 2.212a8.1 8.1 0 0 0 2.319-.621 8.627 8.627 0 0 1-2.019 2.075Z" fill="#2E2E2E"/>
</symbol>

<symbol id="vector-left">
  <path d="M13.5988 3.56266H2.18983L4.8147 0.937799L4.19599 0.319092L0.514893 4.00019L4.19599 7.68129L4.8147 7.06258L2.18978 4.43766H13.5988V3.56266Z" fill="#3A1212"/>
</symbol>

<symbol id="vector-right">
  <path d="M22.1042 0.454102L20.7144 1.84391L26.6107 7.74027H0.982666V9.70585H26.6105L20.7144 15.602L22.1042 16.9918L30.3732 8.72297L22.1042 0.454102Z" fill="#FF9401"/>
</symbol>
</svg>
